<svg id="svg" version="1.1" xmlns="http://www.w3.org/2000/svg" xmlns:xlink="http://www.w3.org/1999/xlink" width="400" height="400" viewBox="0, 0, 400,400"><g id="svgg"><path id="path0" d="M286.486 161.304 C 278.461 163.869,277.842 176.214,285.740 176.194 C 291.732 176.179,296.902 167.996,293.929 163.235 C 292.951 161.669,288.751 160.580,286.486 161.304 M261.954 163.005 C 243.621 168.031,239.665 190.340,255.557 199.078 C 261.362 202.270,262.830 204.330,261.418 207.306 C 260.269 209.728,257.597 210.227,253.362 208.810 C 247.872 206.973,243.194 208.571,243.201 212.280 C 243.217 219.774,265.295 222.657,272.308 216.082 C 279.436 209.399,278.047 199.991,268.854 192.679 C 258.250 184.244,260.034 177.624,274.469 171.854 C 278.681 170.170,277.632 165.083,272.651 163.036 C 270.775 162.265,264.717 162.248,261.954 163.005 M110.200 166.028 C 100.421 166.972,99.896 168.344,100.424 191.600 C 100.964 215.415,101.857 217.951,110.292 219.611 C 113.884 220.317,120.700 219.133,125.479 216.973 C 135.073 212.636,138.644 200.088,132.555 192.105 C 131.508 190.733,131.618 189.947,133.020 188.783 C 140.933 182.217,139.500 170.256,130.400 166.909 C 128.210 166.103,115.267 165.539,110.200 166.028 M176.274 169.573 C 170.761 170.691,170.205 172.899,169.623 196.000 C 169.113 216.240,169.250 216.875,174.655 219.266 C 178.762 221.082,182.400 215.012,182.400 206.341 L 182.400 204.321 184.763 204.596 C 190.100 205.215,193.600 201.608,193.600 195.488 C 193.600 191.782,190.541 189.600,185.347 189.600 C 182.617 189.600,180.917 187.732,181.672 185.564 C 182.355 183.607,183.163 183.414,190.800 183.378 C 202.074 183.325,205.698 180.259,201.720 174.140 C 199.449 170.648,184.343 167.937,176.274 169.573 M29.800 171.865 C 25.976 172.901,24.492 177.747,27.064 180.803 C 28.656 182.695,30.027 183.200,34.096 183.391 C 36.133 183.487,37.962 183.574,38.160 183.583 C 38.372 183.593,38.383 187.419,38.187 192.900 C 37.403 214.853,37.616 217.292,40.461 218.972 C 47.573 223.174,52.276 211.771,49.985 195.877 C 49.757 194.295,49.399 191.830,49.190 190.400 C 48.980 188.970,48.697 186.882,48.561 185.760 L 48.313 183.720 52.420 183.437 C 57.849 183.064,60.000 181.771,60.000 178.881 C 60.000 174.929,55.490 172.854,46.800 172.807 C 44.050 172.792,41.080 172.618,40.200 172.420 C 38.185 171.967,30.867 171.576,29.800 171.865 M67.710 172.771 C 62.410 174.101,60.323 182.269,61.979 195.200 C 62.190 196.850,62.566 199.910,62.815 202.000 C 63.646 208.980,65.174 213.174,67.871 215.871 C 74.147 222.147,88.028 220.572,93.172 213.000 C 98.464 205.210,99.333 179.419,94.415 176.100 C 90.314 173.332,85.930 177.877,86.548 184.256 C 87.454 193.601,87.173 202.794,85.938 204.180 C 85.752 204.389,85.600 204.843,85.600 205.189 C 85.600 207.569,82.152 209.442,80.165 208.141 C 77.381 206.316,76.814 203.530,76.800 191.600 C 76.780 175.220,74.746 171.006,67.710 172.771 M210.910 172.773 C 205.612 174.093,203.517 182.296,205.182 195.200 C 205.395 196.850,205.770 200.000,206.017 202.200 C 206.751 208.754,208.411 213.211,211.133 215.933 C 217.348 222.148,231.256 220.531,236.372 213.000 C 241.664 205.210,242.533 179.419,237.615 176.100 C 233.514 173.332,229.132 177.874,229.747 184.256 C 231.424 201.672,228.752 211.670,223.365 208.141 C 220.569 206.308,220.014 203.547,220.001 191.400 C 219.984 175.110,217.984 171.011,210.910 172.773 M341.897 174.514 C 338.012 176.866,336.044 183.410,336.014 194.078 C 336.006 196.871,335.803 201.461,335.562 204.278 C 334.920 211.785,335.865 216.892,338.244 218.763 C 341.897 221.637,344.881 216.723,347.572 203.400 C 348.842 197.112,348.887 197.071,350.765 200.505 C 360.842 218.921,367.845 222.735,371.874 212.000 C 375.550 202.206,374.842 179.262,370.758 175.826 C 365.377 171.298,360.033 178.148,361.067 188.246 C 361.725 194.670,361.408 194.446,356.749 185.202 C 351.532 174.849,346.877 171.499,341.897 174.514 M310.661 175.028 C 300.898 177.691,295.510 188.001,297.963 199.323 C 300.846 212.623,303.372 217.127,308.874 218.775 C 325.986 223.902,336.682 208.021,331.353 185.400 C 329.460 177.363,319.819 172.530,310.661 175.028 M121.400 179.442 C 125.505 181.574,123.130 184.265,116.286 185.235 C 111.875 185.860,111.701 185.696,111.927 181.113 C 112.063 178.347,117.458 177.395,121.400 179.442 M283.706 180.416 C 279.775 184.436,278.691 210.649,282.207 216.648 C 286.049 223.204,291.378 220.016,293.153 210.100 C 293.399 208.725,293.817 206.475,294.083 205.100 C 295.603 197.229,294.437 185.873,291.698 181.872 C 289.659 178.892,285.870 178.202,283.706 180.416 M320.517 188.934 C 324.290 193.274,322.522 207.841,317.948 210.103 C 312.414 212.839,307.743 202.705,310.357 193.635 C 311.698 188.982,318.018 186.058,320.517 188.934 M145.800 194.343 C 142.071 195.040,140.552 196.748,141.646 199.013 C 144.164 204.226,166.400 203.020,166.400 197.670 C 166.400 195.515,164.242 194.400,160.069 194.398 C 157.941 194.397,154.220 194.317,151.800 194.220 C 149.380 194.124,146.680 194.179,145.800 194.343 M119.963 198.523 C 122.926 199.561,123.568 202.550,121.386 205.144 C 119.609 207.256,112.668 209.377,111.700 208.104 C 111.009 207.196,111.048 200.434,111.749 199.511 C 112.866 198.040,117.123 197.528,119.963 198.523 " stroke="none" fill="#080807" fill-rule="evenodd"></path><path id="path1" d="M0.000 200.000 L 0.000 400.000 200.000 400.000 L 400.000 400.000 400.000 200.000 L 400.000 0.000 200.000 0.000 L 0.000 0.000 0.000 200.000 M87.789 147.283 C 90.915 148.264,94.142 150.990,95.285 153.615 C 96.653 156.758,96.800 157.341,96.800 159.619 C 96.800 162.275,96.187 162.755,95.037 161.000 C 93.823 159.148,92.093 160.037,92.643 162.231 C 93.195 164.429,92.525 164.511,90.108 162.542 C 84.012 157.574,75.806 156.393,68.274 159.400 C 66.421 160.139,65.905 160.218,65.740 159.787 C 65.355 158.784,65.803 157.801,66.704 157.672 C 67.699 157.530,67.947 156.800,67.000 156.800 C 66.670 156.800,66.403 156.575,66.406 156.300 C 66.438 153.693,76.007 151.283,81.079 152.604 C 86.094 153.910,90.974 157.048,90.545 158.690 C 90.237 159.867,90.931 160.105,91.452 159.001 C 92.249 157.312,87.025 151.899,83.800 151.071 C 83.360 150.958,82.190 150.566,81.200 150.199 C 80.038 149.769,78.207 149.536,76.035 149.541 L 72.671 149.550 73.854 148.830 C 74.505 148.434,75.749 147.882,76.619 147.603 C 77.488 147.324,78.560 146.952,79.000 146.775 C 80.593 146.136,84.934 146.387,87.789 147.283 M78.800 154.800 C 78.800 155.020,79.070 155.200,79.400 155.200 C 79.730 155.200,80.000 155.020,80.000 154.800 C 80.000 154.580,79.730 154.400,79.400 154.400 C 79.070 154.400,78.800 154.580,78.800 154.800 M72.237 155.540 C 72.122 155.726,72.586 155.895,73.269 155.914 C 73.951 155.934,74.701 156.141,74.935 156.375 C 75.572 157.012,76.336 156.891,77.292 156.000 C 77.764 155.560,77.948 155.200,77.699 155.200 C 77.451 155.200,77.136 155.380,77.000 155.600 C 76.864 155.820,76.324 156.000,75.800 156.000 C 75.276 156.000,74.736 155.820,74.600 155.600 C 74.299 155.113,72.529 155.068,72.237 155.540 M70.229 156.629 C 69.805 156.938,69.572 157.305,69.710 157.443 C 69.849 157.582,70.262 157.395,70.629 157.029 C 71.491 156.166,71.225 155.900,70.229 156.629 M82.000 156.400 C 82.000 156.620,82.259 156.800,82.576 156.800 C 82.893 156.800,83.264 156.620,83.400 156.400 C 83.536 156.180,83.277 156.000,82.824 156.000 C 82.371 156.000,82.000 156.180,82.000 156.400 M197.600 160.400 C 197.600 160.620,197.330 160.800,197.000 160.800 C 196.670 160.800,196.400 160.620,196.400 160.400 C 196.400 160.180,196.670 160.000,197.000 160.000 C 197.330 160.000,197.600 160.180,197.600 160.400 M210.557 161.033 C 210.691 161.381,210.794 161.966,210.787 162.333 C 210.771 163.171,209.600 161.781,209.600 160.924 C 209.600 160.193,210.264 160.268,210.557 161.033 M292.850 161.676 C 297.438 164.255,295.267 172.949,289.289 175.940 C 280.290 180.441,275.476 168.522,283.747 162.214 C 286.368 160.214,289.880 160.007,292.850 161.676 M271.908 162.210 C 279.157 164.362,279.696 170.654,272.846 173.151 C 261.951 177.124,259.538 184.712,267.270 190.686 C 277.377 198.495,279.721 205.329,275.106 213.530 C 269.737 223.071,244.518 222.430,242.941 212.712 C 242.212 208.224,246.941 206.169,253.315 208.205 C 257.374 209.501,258.479 209.476,260.074 208.051 C 262.922 205.506,261.520 202.985,255.384 199.617 C 246.146 194.547,242.821 185.858,246.428 176.216 C 250.178 166.194,262.506 159.418,271.908 162.210 M84.260 164.406 C 87.543 165.995,92.286 170.013,91.803 170.796 C 91.712 170.943,90.594 171.289,89.319 171.565 C 88.043 171.840,86.190 172.247,85.200 172.467 C 84.210 172.688,81.150 172.867,78.400 172.865 L 73.400 172.862 74.438 173.758 C 76.285 175.354,76.900 177.930,77.102 184.913 L 77.284 191.225 81.742 191.113 L 86.200 191.000 86.072 185.600 C 85.896 178.197,87.734 174.800,91.912 174.800 C 96.508 174.800,97.996 178.569,97.994 190.200 C 97.991 211.202,93.412 218.924,80.200 220.208 C 68.111 221.384,63.589 215.554,61.576 196.200 C 59.824 179.352,62.105 172.000,69.085 172.000 C 70.706 172.000,70.783 171.456,69.253 170.822 C 67.683 170.171,65.495 167.838,65.663 166.993 C 65.825 166.176,71.630 162.918,73.387 162.658 C 77.087 162.109,80.722 162.694,84.260 164.406 M198.576 163.387 C 197.561 164.156,196.966 164.163,197.600 163.400 C 197.874 163.070,198.380 162.800,198.725 162.800 C 199.228 162.800,199.198 162.917,198.576 163.387 M212.167 163.843 C 212.810 164.089,213.066 165.200,212.480 165.200 C 212.066 165.200,211.200 164.334,211.200 163.920 C 211.200 163.536,211.339 163.525,212.167 163.843 M126.671 165.627 C 139.127 167.325,142.751 178.681,133.984 188.542 C 132.552 190.153,132.337 190.597,132.725 191.142 C 142.535 204.956,129.894 221.943,111.074 220.237 C 101.681 219.385,100.483 216.310,99.994 191.800 C 99.561 170.057,99.817 168.768,105.005 166.560 C 108.006 165.283,120.274 164.754,126.671 165.627 M194.964 169.774 C 201.118 171.465,204.206 174.846,203.420 179.035 C 202.718 182.777,199.444 184.000,190.127 184.000 C 182.868 184.000,182.000 184.294,182.000 186.751 C 182.000 188.170,182.850 188.572,187.600 189.402 C 192.763 190.304,194.632 192.226,194.259 196.246 C 193.734 201.902,190.340 205.405,185.627 205.155 C 183.063 205.019,182.953 205.150,182.679 208.686 C 181.853 219.356,176.912 223.185,171.241 217.550 C 168.400 214.728,168.502 216.008,169.180 191.600 C 169.671 173.916,170.159 171.869,174.403 169.668 C 176.650 168.503,190.600 168.575,194.964 169.774 M44.400 171.950 C 56.000 172.750,58.272 173.437,59.771 176.594 C 61.830 180.934,59.320 183.513,52.600 183.960 C 48.430 184.238,48.744 183.552,49.744 190.200 C 52.577 209.055,50.659 219.075,44.001 220.200 C 38.342 221.156,36.453 216.802,37.184 204.490 C 37.428 200.370,37.667 194.120,37.714 190.600 L 37.800 184.200 34.000 183.970 C 26.196 183.498,22.369 177.693,26.884 173.177 C 29.073 170.989,29.770 170.940,44.400 171.950 M218.806 175.685 C 219.243 176.502,219.938 178.572,220.349 180.285 C 220.761 181.998,221.230 183.715,221.392 184.100 C 221.601 184.598,221.500 184.800,221.043 184.800 C 220.491 184.800,220.400 185.425,220.400 189.200 L 220.400 193.600 222.413 193.600 C 224.564 193.600,225.326 192.916,224.407 191.808 C 224.142 191.489,224.001 190.996,224.096 190.713 C 224.190 190.431,224.588 190.877,224.981 191.704 C 226.069 193.996,228.701 194.338,228.143 192.116 C 227.961 191.390,228.020 191.165,228.342 191.364 C 228.594 191.520,228.800 191.907,228.800 192.224 C 228.800 192.541,229.071 192.800,229.403 192.800 C 229.912 192.800,229.959 192.351,229.703 189.900 C 228.612 179.457,230.280 174.800,235.112 174.800 C 239.708 174.800,241.196 178.569,241.194 190.200 C 241.191 211.202,236.612 218.924,223.400 220.208 C 211.554 221.360,206.892 215.696,204.955 197.800 C 202.887 178.700,204.998 172.000,213.085 172.000 C 214.430 172.000,215.200 171.830,215.200 171.533 C 215.200 170.861,217.868 173.932,218.806 175.685 M349.121 174.235 C 352.059 175.700,353.621 177.741,357.127 184.698 C 358.817 188.053,360.295 190.798,360.410 190.798 C 360.526 190.799,360.551 188.933,360.467 186.652 C 360.110 177.021,365.618 171.038,370.967 175.246 C 375.142 178.529,376.109 201.586,372.501 211.800 C 368.412 223.377,361.009 220.033,351.000 202.087 C 348.980 198.466,349.150 198.362,348.039 203.900 C 346.911 209.518,345.136 215.156,343.751 217.520 C 340.688 222.746,336.060 220.032,334.988 212.382 C 334.609 209.670,335.547 188.406,336.217 184.569 C 337.913 174.842,342.679 171.025,349.121 174.235 M318.928 173.986 C 328.109 175.489,332.586 181.891,333.066 194.200 C 333.708 210.666,327.077 220.084,314.800 220.140 C 305.761 220.182,301.629 216.393,298.792 205.465 C 294.666 189.570,298.050 179.182,308.644 175.218 C 312.477 173.784,315.490 173.423,318.928 173.986 M289.854 179.411 C 295.410 182.667,296.731 194.033,293.526 211.000 C 292.000 219.076,289.304 221.722,284.682 219.677 C 279.910 217.567,278.696 210.267,280.212 192.800 C 281.336 179.851,284.087 176.031,289.854 179.411 M114.200 179.066 C 112.704 179.477,112.400 180.049,112.400 182.449 L 112.400 184.800 114.500 184.794 C 121.037 184.774,125.077 181.812,121.172 179.901 C 119.687 179.175,115.590 178.684,114.200 179.066 M223.200 187.847 C 223.200 188.177,223.020 188.336,222.800 188.200 C 222.580 188.064,222.400 187.683,222.400 187.353 C 222.400 187.023,222.580 186.864,222.800 187.000 C 223.020 187.136,223.200 187.517,223.200 187.847 M316.274 188.407 C 312.188 189.633,309.772 193.842,311.675 196.416 C 313.398 198.746,314.400 197.574,314.400 193.229 C 314.400 191.343,314.566 190.000,314.800 190.000 C 315.020 190.000,315.200 190.994,315.200 192.209 C 315.200 194.246,315.285 194.451,316.300 194.852 C 316.905 195.091,317.713 195.447,318.095 195.643 C 319.229 196.226,319.619 196.064,320.049 194.832 C 320.273 194.190,320.713 193.565,321.028 193.445 C 322.862 192.741,319.426 187.452,317.513 188.034 C 317.451 188.053,316.893 188.221,316.274 188.407 M317.800 191.600 C 317.476 193.957,318.140 194.363,318.668 192.131 C 319.079 190.394,320.000 189.849,320.000 191.343 C 320.000 191.898,319.820 192.464,319.600 192.600 C 319.380 192.736,319.200 193.257,319.200 193.757 C 319.200 195.061,318.908 195.193,317.536 194.508 C 316.476 193.980,316.351 193.747,316.560 192.701 C 316.692 192.040,316.800 191.072,316.800 190.550 C 316.800 189.947,317.033 189.600,317.438 189.600 C 317.973 189.600,318.031 189.921,317.800 191.600 M163.344 194.067 C 166.645 194.895,167.823 197.924,165.638 199.965 C 161.525 203.806,143.942 203.736,141.408 199.868 C 139.819 197.443,140.837 195.192,143.969 194.209 C 146.118 193.534,160.792 193.427,163.344 194.067 M321.525 194.600 C 321.373 195.040,320.984 195.850,320.659 196.400 C 320.335 196.950,319.600 198.448,319.027 199.728 C 318.434 201.052,317.772 201.993,317.492 201.910 C 317.221 201.831,316.124 201.522,315.054 201.224 C 313.556 200.807,312.866 200.331,312.054 199.156 C 310.658 197.135,310.400 197.211,310.400 199.643 C 310.400 201.365,310.502 201.646,311.051 201.436 C 312.324 200.947,312.800 201.953,312.806 205.149 C 312.813 208.445,312.945 208.841,314.274 209.540 C 316.889 210.917,321.052 208.503,319.000 206.800 C 318.020 205.986,318.300 205.480,319.588 205.738 C 320.994 206.019,321.883 203.834,321.403 201.278 C 321.240 200.408,321.311 199.779,321.591 199.606 C 321.872 199.432,321.995 198.299,321.920 196.564 C 321.848 194.908,321.690 194.121,321.525 194.600 M113.352 198.949 C 111.639 199.729,110.936 206.895,112.479 207.849 C 114.102 208.852,120.613 205.778,121.741 203.477 C 123.497 199.895,117.905 196.876,113.352 198.949 " stroke="none" fill="#fbfbfb" fill-rule="evenodd"></path><path id="path2" d="M77.273 197.487 C 77.472 205.443,78.330 207.606,81.543 208.249 C 84.684 208.877,86.545 204.571,86.578 196.600 L 86.600 191.400 81.858 191.287 L 77.116 191.174 77.273 197.487 M220.333 196.080 C 219.822 205.309,223.514 211.157,227.305 207.123 C 229.312 204.987,230.244 200.802,228.713 200.799 C 228.431 200.798,227.390 199.223,226.400 197.299 L 224.600 193.800 222.537 193.680 L 220.473 193.561 220.333 196.080 M226.799 194.100 C 226.797 195.115,228.944 199.619,229.365 199.481 C 230.760 199.024,229.123 193.600,227.590 193.600 C 227.156 193.600,226.799 193.825,226.799 194.100 M311.054 201.512 C 310.305 202.724,311.493 208.400,312.496 208.400 C 312.955 208.400,312.860 202.860,312.386 201.974 C 311.956 201.170,311.387 200.973,311.054 201.512 " stroke="none" fill="#5dbbdf" fill-rule="evenodd"></path><path id="path3" d="M74.944 163.229 C 72.661 163.453,71.325 163.981,67.200 166.286 C 66.430 166.717,65.800 167.316,65.800 167.618 C 65.800 168.425,69.419 171.021,71.339 171.591 C 72.253 171.862,73.413 172.245,73.919 172.442 C 75.165 172.928,82.263 172.896,84.880 172.392 C 89.238 171.554,91.200 171.065,91.200 170.815 C 91.200 170.024,86.929 166.389,84.745 165.321 C 80.419 163.205,78.774 162.854,74.944 163.229 M316.800 192.000 C 316.800 193.100,316.980 194.000,317.200 194.000 C 317.420 194.000,317.600 193.100,317.600 192.000 C 317.600 190.900,317.420 190.000,317.200 190.000 C 316.980 190.000,316.800 190.900,316.800 192.000 M314.484 193.356 C 314.598 197.185,312.895 199.219,311.600 196.800 C 311.215 196.080,310.000 195.652,310.000 196.236 C 310.000 197.186,313.820 200.800,314.825 200.800 C 315.445 200.800,316.064 200.980,316.200 201.200 C 317.033 202.549,319.600 199.677,319.600 197.395 C 319.600 196.759,317.714 195.464,316.400 195.198 C 315.491 195.014,315.389 194.786,315.280 192.698 C 315.102 189.288,314.380 189.884,314.484 193.356 M319.200 191.400 C 319.200 191.730,319.380 192.000,319.600 192.000 C 319.820 192.000,320.000 191.730,320.000 191.400 C 320.000 191.070,319.820 190.800,319.600 190.800 C 319.380 190.800,319.200 191.070,319.200 191.400 M318.400 194.000 C 318.400 194.747,318.507 194.853,318.880 194.480 C 319.253 194.107,319.253 193.893,318.880 193.520 C 318.507 193.147,318.400 193.253,318.400 194.000 M320.458 194.631 C 319.920 195.814,319.898 196.001,320.300 195.997 C 320.746 195.992,321.573 194.031,321.221 193.813 C 321.054 193.710,320.711 194.078,320.458 194.631 " stroke="none" fill="#9751e8" fill-rule="evenodd"></path><path id="path4" d="M79.000 146.775 C 78.560 146.952,77.488 147.324,76.619 147.603 C 75.749 147.882,74.505 148.434,73.854 148.830 L 72.671 149.550 76.035 149.541 C 78.207 149.536,80.038 149.769,81.200 150.199 C 82.190 150.566,83.360 150.958,83.800 151.071 C 87.025 151.899,92.249 157.312,91.452 159.001 C 90.931 160.105,90.237 159.867,90.545 158.690 C 90.974 157.048,86.094 153.910,81.079 152.604 C 76.007 151.283,66.438 153.693,66.406 156.300 C 66.403 156.575,66.670 156.800,67.000 156.800 C 67.947 156.800,67.699 157.530,66.704 157.672 C 65.803 157.801,65.355 158.784,65.740 159.787 C 65.905 160.218,66.421 160.139,68.274 159.400 C 75.806 156.393,84.012 157.574,90.108 162.542 C 92.525 164.511,93.195 164.429,92.643 162.231 C 92.093 160.037,93.823 159.148,95.037 161.000 C 96.187 162.755,96.800 162.275,96.800 159.619 C 96.800 157.341,96.653 156.758,95.285 153.615 C 93.097 148.590,84.000 144.769,79.000 146.775 M80.000 154.800 C 80.000 155.020,79.730 155.200,79.400 155.200 C 79.070 155.200,78.800 155.020,78.800 154.800 C 78.800 154.580,79.070 154.400,79.400 154.400 C 79.730 154.400,80.000 154.580,80.000 154.800 M74.600 155.600 C 74.736 155.820,75.276 156.000,75.800 156.000 C 76.324 156.000,76.864 155.820,77.000 155.600 C 77.136 155.380,77.451 155.200,77.699 155.200 C 77.948 155.200,77.764 155.560,77.292 156.000 C 76.336 156.891,75.572 157.012,74.935 156.375 C 74.701 156.141,73.951 155.934,73.269 155.914 C 72.586 155.895,72.122 155.726,72.237 155.540 C 72.529 155.068,74.299 155.113,74.600 155.600 M70.629 157.029 C 70.262 157.395,69.849 157.582,69.710 157.443 C 69.572 157.305,69.805 156.938,70.229 156.629 C 71.225 155.900,71.491 156.166,70.629 157.029 M83.400 156.400 C 83.264 156.620,82.893 156.800,82.576 156.800 C 82.259 156.800,82.000 156.620,82.000 156.400 C 82.000 156.180,82.371 156.000,82.824 156.000 C 83.277 156.000,83.536 156.180,83.400 156.400 M196.400 160.400 C 196.400 160.620,196.670 160.800,197.000 160.800 C 197.330 160.800,197.600 160.620,197.600 160.400 C 197.600 160.180,197.330 160.000,197.000 160.000 C 196.670 160.000,196.400 160.180,196.400 160.400 M209.600 160.924 C 209.600 161.781,210.771 163.171,210.787 162.333 C 210.805 161.392,210.379 160.400,209.957 160.400 C 209.761 160.400,209.600 160.636,209.600 160.924 M286.274 160.787 C 280.201 162.714,277.376 171.353,281.521 175.324 C 287.234 180.798,298.186 170.991,294.759 163.469 C 293.837 161.447,289.007 159.920,286.274 160.787 M292.008 161.860 C 295.505 163.233,295.559 169.185,292.111 173.043 C 285.984 179.899,277.009 174.754,280.848 166.587 C 283.053 161.896,287.404 160.053,292.008 161.860 M263.200 162.184 C 243.255 166.736,238.343 190.264,255.384 199.617 C 261.520 202.985,262.922 205.506,260.074 208.051 C 258.479 209.476,257.374 209.501,253.315 208.205 C 243.716 205.139,238.145 213.574,247.000 217.767 C 257.156 222.575,271.208 220.457,275.106 213.530 C 279.721 205.329,277.377 198.495,267.270 190.686 C 259.538 184.712,261.951 177.124,272.846 173.151 C 276.370 171.866,277.600 170.726,277.600 168.745 C 277.600 163.343,271.100 160.381,263.200 162.184 M73.387 162.658 C 71.948 162.871,65.907 166.078,65.685 166.746 C 65.555 167.135,69.279 165.353,70.600 164.395 C 72.262 163.188,78.779 162.708,81.016 163.627 C 86.047 165.693,87.979 166.942,90.131 169.517 C 90.909 170.449,91.641 171.057,91.757 170.870 C 91.873 170.682,91.016 169.529,89.853 168.309 C 85.800 164.057,79.208 161.795,73.387 162.658 M272.651 163.036 C 277.632 165.083,278.681 170.170,274.469 171.854 C 260.034 177.624,258.250 184.244,268.854 192.679 C 278.047 199.991,279.436 209.399,272.308 216.082 C 265.295 222.657,243.217 219.774,243.201 212.280 C 243.194 208.571,247.872 206.973,253.362 208.810 C 257.597 210.227,260.269 209.728,261.418 207.306 C 262.830 204.330,261.362 202.270,255.557 199.078 C 245.870 193.752,243.058 184.845,247.796 174.496 C 251.756 165.846,264.824 159.821,272.651 163.036 M197.600 163.400 C 196.966 164.163,197.561 164.156,198.576 163.387 C 199.198 162.917,199.228 162.800,198.725 162.800 C 198.380 162.800,197.874 163.070,197.600 163.400 M211.200 163.920 C 211.200 164.334,212.066 165.200,212.480 165.200 C 213.066 165.200,212.810 164.089,212.167 163.843 C 211.339 163.525,211.200 163.536,211.200 163.920 M109.000 165.595 C 100.049 166.661,99.524 168.189,99.994 191.800 C 100.483 216.310,101.681 219.385,111.074 220.237 C 129.894 221.943,142.535 204.956,132.725 191.142 C 132.337 190.597,132.552 190.153,133.984 188.542 C 141.020 180.627,140.105 170.714,132.000 167.048 C 128.271 165.362,116.962 164.647,109.000 165.595 M125.400 166.204 C 135.271 166.725,140.289 172.912,137.568 181.204 C 136.757 183.673,134.356 187.674,133.020 188.783 C 131.618 189.947,131.508 190.733,132.555 192.105 C 139.939 201.787,133.422 216.060,120.400 218.724 C 107.787 221.305,103.324 219.263,101.339 210.000 C 100.599 206.547,99.888 176.763,100.470 173.608 C 101.820 166.296,105.647 165.159,125.400 166.204 M174.403 169.668 C 170.159 171.869,169.671 173.916,169.180 191.600 C 168.502 216.008,168.400 214.728,171.241 217.550 C 176.912 223.185,181.853 219.356,182.679 208.686 C 182.953 205.150,183.063 205.019,185.627 205.155 C 190.340 205.405,193.734 201.902,194.259 196.246 C 194.632 192.226,192.763 190.304,187.600 189.402 C 182.850 188.572,182.000 188.170,182.000 186.751 C 182.000 184.294,182.868 184.000,190.127 184.000 C 197.650 184.000,200.262 183.460,202.062 181.534 C 204.927 178.467,203.256 173.236,198.725 171.086 C 193.895 168.794,177.889 167.861,174.403 169.668 M193.400 170.061 C 200.419 171.518,204.240 175.242,202.838 179.262 C 201.693 182.547,199.380 183.338,190.800 183.378 C 183.163 183.414,182.355 183.607,181.672 185.564 C 180.917 187.732,182.617 189.600,185.347 189.600 C 190.541 189.600,193.600 191.782,193.600 195.488 C 193.600 201.608,190.100 205.215,184.763 204.596 L 182.400 204.321 182.400 206.341 C 182.400 215.012,178.762 221.082,174.655 219.266 C 169.250 216.875,169.113 216.240,169.623 196.000 C 170.307 168.877,170.209 169.050,184.600 169.455 C 188.340 169.560,192.300 169.833,193.400 170.061 M28.969 171.574 C 25.283 173.123,24.083 178.135,26.664 181.203 C 28.296 183.143,29.818 183.717,34.000 183.970 L 37.800 184.200 37.714 190.600 C 37.667 194.120,37.428 200.370,37.184 204.490 C 36.453 216.802,38.342 221.156,44.001 220.200 C 50.659 219.075,52.577 209.055,49.744 190.200 C 48.744 183.552,48.430 184.238,52.600 183.960 C 60.618 183.427,63.332 178.172,57.630 174.221 C 55.159 172.508,31.865 170.357,28.969 171.574 M70.400 171.586 C 70.400 171.814,69.808 172.000,69.085 172.000 C 62.105 172.000,59.824 179.352,61.576 196.200 C 63.589 215.554,68.111 221.384,80.200 220.208 C 93.412 218.924,97.991 211.202,97.994 190.200 C 97.996 176.972,94.898 171.889,89.159 175.703 C 86.319 177.590,84.821 187.051,86.622 191.718 C 86.775 192.113,86.820 194.543,86.722 197.118 C 86.597 200.429,86.653 201.390,86.914 200.400 C 87.266 199.065,87.046 189.251,86.552 184.256 C 85.923 177.883,90.312 173.331,94.415 176.100 C 99.333 179.419,98.464 205.210,93.172 213.000 C 88.028 220.572,74.147 222.147,67.871 215.871 C 65.174 213.174,63.646 208.980,62.815 202.000 C 62.566 199.910,62.190 196.850,61.979 195.200 C 60.109 180.600,62.792 172.738,69.676 172.641 C 75.472 172.559,76.770 176.037,76.822 191.800 C 76.841 197.520,76.979 202.509,77.128 202.888 C 77.388 203.545,77.380 201.376,77.066 185.600 C 76.913 177.924,76.338 175.296,74.495 173.846 C 73.748 173.258,73.652 173.013,74.066 172.751 C 74.598 172.413,74.529 172.379,72.983 172.208 C 72.534 172.158,71.769 171.905,71.283 171.645 C 70.712 171.339,70.400 171.318,70.400 171.586 M215.200 171.533 C 215.200 171.830,214.430 172.000,213.085 172.000 C 204.998 172.000,202.887 178.700,204.955 197.800 C 206.892 215.696,211.554 221.360,223.400 220.208 C 236.612 218.924,241.191 211.202,241.194 190.200 C 241.196 178.569,239.708 174.800,235.112 174.800 C 230.280 174.800,228.612 179.457,229.703 189.900 C 229.959 192.351,229.912 192.800,229.403 192.800 C 229.071 192.800,228.800 192.541,228.800 192.224 C 228.800 191.907,228.620 191.536,228.401 191.401 C 227.755 191.002,228.181 193.216,229.157 195.330 C 230.060 197.288,230.157 199.221,229.365 199.481 C 228.942 199.620,226.797 195.111,226.799 194.087 C 226.799 193.806,226.544 193.477,226.231 193.357 C 225.918 193.236,225.363 192.507,224.997 191.737 C 224.631 190.966,224.227 190.440,224.099 190.568 C 223.970 190.696,224.072 191.206,224.324 191.701 C 224.575 192.195,224.745 192.870,224.700 193.200 C 224.600 193.933,228.045 200.800,228.513 200.800 C 228.697 200.800,228.736 200.620,228.600 200.400 C 228.464 200.180,228.653 200.000,229.019 200.000 C 229.441 200.000,229.603 200.216,229.460 200.587 C 229.336 200.910,229.394 201.273,229.588 201.393 C 230.479 201.943,230.578 192.378,229.762 184.489 C 229.084 177.933,233.439 173.281,237.615 176.100 C 242.533 179.419,241.664 205.210,236.372 213.000 C 231.256 220.531,217.348 222.148,211.133 215.933 C 208.411 213.211,206.751 208.754,206.017 202.200 C 205.770 200.000,205.395 196.850,205.182 195.200 C 203.276 180.427,205.998 172.672,213.094 172.656 C 218.495 172.643,219.937 176.140,220.085 189.600 C 220.179 198.154,220.180 198.164,220.299 191.500 C 220.403 185.706,220.505 184.800,221.052 184.800 C 221.501 184.800,221.600 184.596,221.392 184.100 C 221.230 183.715,220.761 181.998,220.349 180.285 C 219.407 176.363,215.200 169.213,215.200 171.533 M40.200 172.420 C 41.080 172.618,44.050 172.792,46.800 172.807 C 55.490 172.854,60.000 174.929,60.000 178.881 C 60.000 181.771,57.849 183.064,52.420 183.437 L 48.313 183.720 48.561 185.760 C 48.697 186.882,48.980 188.970,49.190 190.400 C 49.399 191.830,49.757 194.295,49.985 195.877 C 52.276 211.771,47.573 223.174,40.461 218.972 C 37.616 217.292,37.403 214.853,38.187 192.900 C 38.383 187.419,38.372 183.593,38.160 183.583 C 37.962 183.574,36.133 183.487,34.096 183.391 C 27.677 183.089,24.442 179.862,26.062 175.378 C 27.327 171.876,32.746 170.742,40.200 172.420 M342.400 173.647 C 337.464 175.601,335.904 181.132,335.185 199.234 C 334.638 212.966,334.878 215.365,337.089 218.325 C 341.050 223.626,345.168 218.201,348.039 203.900 C 349.150 198.362,348.980 198.466,351.000 202.087 C 361.009 220.033,368.412 223.377,372.501 211.800 C 376.109 201.586,375.142 178.529,370.967 175.246 C 365.618 171.038,360.110 177.021,360.467 186.652 C 360.551 188.933,360.526 190.799,360.410 190.798 C 360.295 190.798,358.817 188.053,357.127 184.698 C 352.114 174.750,347.796 171.510,342.400 173.647 M312.939 174.038 C 299.247 176.325,294.161 187.623,298.792 205.465 C 301.629 216.393,305.761 220.182,314.800 220.140 C 324.444 220.096,330.170 214.796,332.454 203.800 C 336.337 185.100,327.489 171.607,312.939 174.038 M348.160 174.383 C 351.333 175.743,353.112 177.983,356.749 185.202 C 361.408 194.446,361.725 194.670,361.067 188.246 C 360.033 178.148,365.377 171.298,370.758 175.826 C 374.842 179.262,375.550 202.206,371.874 212.000 C 367.845 222.735,360.842 218.921,350.765 200.505 C 348.887 197.071,348.842 197.112,347.572 203.400 C 344.881 216.723,341.897 221.637,338.244 218.763 C 335.865 216.892,334.920 211.785,335.562 204.278 C 335.803 201.461,336.006 196.871,336.014 194.078 C 336.058 178.493,340.593 171.139,348.160 174.383 M321.498 175.163 C 326.374 176.945,330.329 181.054,331.353 185.400 C 336.682 208.021,325.986 223.902,308.874 218.775 C 303.372 217.127,300.846 212.623,297.963 199.323 C 296.972 194.746,297.795 187.460,299.756 183.458 C 303.163 176.505,313.931 172.397,321.498 175.163 M113.100 179.007 C 111.780 179.749,111.285 184.245,112.401 185.361 C 113.321 186.281,121.625 184.416,122.774 183.032 C 125.151 180.168,117.039 176.793,113.100 179.007 M284.967 178.788 C 282.168 179.920,281.042 183.237,280.212 192.800 C 278.696 210.267,279.910 217.567,284.682 219.677 C 290.323 222.173,292.604 218.569,294.779 203.723 C 297.038 188.300,292.152 175.881,284.967 178.788 M121.172 179.901 C 125.077 181.812,121.037 184.774,114.500 184.794 L 112.400 184.800 112.400 182.449 C 112.400 180.049,112.704 179.477,114.200 179.066 C 115.590 178.684,119.687 179.175,121.172 179.901 M289.546 179.772 C 293.773 181.958,296.073 194.795,294.083 205.100 C 293.817 206.475,293.399 208.725,293.153 210.100 C 291.678 218.339,289.201 221.100,284.966 219.226 C 279.895 216.983,278.952 209.190,281.238 188.400 C 282.135 180.240,284.899 177.369,289.546 179.772 M222.400 187.353 C 222.400 187.683,222.580 188.064,222.800 188.200 C 223.020 188.336,223.200 188.177,223.200 187.847 C 223.200 187.517,223.020 187.136,222.800 187.000 C 222.580 186.864,222.400 187.023,222.400 187.353 M315.580 188.130 C 312.792 189.152,310.739 191.584,310.190 194.514 C 309.969 195.688,310.036 196.000,310.507 196.000 C 310.834 196.000,311.400 196.405,311.763 196.900 C 312.415 197.789,312.418 197.789,312.009 196.922 C 311.782 196.440,311.417 195.934,311.198 195.799 C 309.240 194.589,312.887 189.408,316.406 188.398 C 319.062 187.636,322.082 190.424,321.427 193.034 C 321.290 193.582,321.361 194.000,321.592 194.000 C 321.830 194.000,322.000 195.165,322.000 196.800 C 322.000 198.551,321.837 199.600,321.565 199.600 C 321.281 199.600,321.221 200.140,321.392 201.155 C 321.855 203.892,321.016 206.023,319.588 205.738 C 318.300 205.480,318.020 205.986,319.000 206.800 C 319.874 207.526,319.739 208.233,318.546 209.171 C 316.982 210.402,314.077 210.124,313.122 208.652 C 312.969 208.416,312.732 208.335,312.595 208.471 C 312.174 208.893,313.988 210.298,315.291 210.558 C 319.744 211.449,322.534 205.608,322.448 195.576 C 322.397 189.524,319.713 186.614,315.580 188.130 M317.054 189.906 C 317.303 190.068,317.597 190.560,317.707 191.000 C 317.861 191.613,317.918 191.543,317.954 190.700 C 317.987 189.899,317.810 189.602,317.300 189.606 C 316.856 189.610,316.766 189.720,317.054 189.906 M319.079 190.700 C 318.183 192.297,318.601 194.250,319.523 192.774 C 319.815 192.307,319.847 192.000,319.603 192.000 C 319.025 192.000,319.104 190.905,319.700 190.665 C 320.061 190.519,320.067 190.454,319.724 190.432 C 319.462 190.414,319.171 190.535,319.079 190.700 M316.454 193.071 C 316.391 194.078,318.592 195.460,319.058 194.706 C 319.216 194.451,319.135 194.393,318.862 194.562 C 318.585 194.733,318.400 194.587,318.400 194.197 C 318.400 193.737,318.175 193.618,317.630 193.790 C 317.047 193.975,316.818 193.812,316.685 193.117 C 316.514 192.228,316.507 192.227,316.454 193.071 M143.969 194.209 C 140.837 195.192,139.819 197.443,141.408 199.868 C 143.942 203.736,161.525 203.806,165.638 199.965 C 167.823 197.924,166.645 194.895,163.344 194.067 C 160.792 193.427,146.118 193.534,143.969 194.209 M160.069 194.398 C 164.242 194.400,166.400 195.515,166.400 197.670 C 166.400 203.020,144.164 204.226,141.646 199.013 C 139.987 195.578,143.560 193.891,151.800 194.220 C 154.220 194.317,157.941 194.397,160.069 194.398 M318.738 196.260 C 319.406 196.849,319.645 197.386,319.494 197.961 C 319.373 198.423,319.438 198.700,319.637 198.577 C 319.837 198.454,320.000 198.039,320.000 197.656 C 320.000 197.273,320.216 196.744,320.480 196.480 C 320.974 195.986,320.538 195.805,319.270 195.977 C 318.979 196.016,318.521 195.903,318.251 195.724 C 317.982 195.546,318.201 195.787,318.738 196.260 M309.600 199.620 C 309.600 202.518,310.270 205.728,310.805 205.397 C 310.963 205.299,311.017 204.720,310.925 204.110 C 310.832 203.499,310.683 201.652,310.594 200.005 C 310.379 196.066,309.600 195.765,309.600 199.620 M113.236 198.436 C 111.274 199.221,110.180 206.106,111.700 208.104 C 112.668 209.377,119.609 207.256,121.386 205.144 C 125.068 200.768,119.294 196.014,113.236 198.436 M120.473 199.206 C 122.998 200.378,122.589 203.932,119.708 205.850 C 118.319 206.774,113.083 208.222,112.479 207.849 C 111.969 207.533,111.517 202.651,111.839 200.935 C 112.287 198.545,117.012 197.599,120.473 199.206 M220.028 200.433 C 220.044 201.405,220.206 202.560,220.390 203.000 C 220.592 203.483,220.638 202.849,220.507 201.400 C 220.245 198.510,219.989 197.993,220.028 200.433 M83.615 207.646 C 82.919 208.225,82.297 208.399,81.495 208.239 C 80.799 208.100,80.454 208.164,80.604 208.406 C 81.074 209.167,83.047 208.815,84.000 207.800 C 85.132 206.595,84.961 206.526,83.615 207.646 M226.815 207.646 C 226.119 208.225,225.497 208.399,224.695 208.239 C 223.999 208.100,223.654 208.164,223.804 208.406 C 224.274 209.167,226.247 208.815,227.200 207.800 C 228.332 206.595,228.161 206.526,226.815 207.646 " stroke="none" fill="#90a5b6" fill-rule="evenodd"></path></g></svg>